<svg xmlns="http://www.w3.org/2000/svg" viewBox="0 0 774.3 596.73"><title>cruz</title><g id="Capa_1" data-name="Capa 1"><path d="M268.33,522.05c-1.1-8.57-2.2-17.09-3.27-25.44-3.52-1.82-6.25-1.21-9.12,1C249,503,241.7,508,234.75,513.33a8.35,8.35,0,0,1-8.39,1.58c-3.5-1.1-7.16-1.66-10.68-2.7a5.56,5.56,0,0,0-5.39.84c-.5.39-1.1.66-1.59,1.06-4,3.32-8.51,4.89-13.76,3.88-2.86-.54-4.75.64-6.3,3.12-1.93,3.1-3.72,6.91-6.63,8.62s-7.1,1.18-10.74,1.6a20.49,20.49,0,0,1-3.82.24c-7.06-.59-12.16,2.85-16.61,7.81-4.81,5.36-9.76,10.59-14.52,16a9.49,9.49,0,0,1-6.5,3.41c-19.67,2.38-39.33,4.94-59,7.46q-28.31,3.63-56.6,7.26c-4.58.59-9.17,1.07-13.75,1.59L0,574.21c1.31-1,2.6-2,3.93-3Q49.31,539,94.74,506.88c3.09-2.18,4.83-4.29,3.78-8.25-.52-2,.06-4.23-.49-6.19-1.22-4.43.68-7.25,4-9.8a64,64,0,0,0,20.33-26.18A8.47,8.47,0,0,1,129,451c3.9-.8,7.65-2.3,11.52-3.27,2.31-.57,3.72-1.6,3.89-4.11.07-1.1.6-2.19.64-3.29.25-8.39,4.26-14.61,10.48-20,6-5.24,11.14-11.42,18.22-15.46,3.6-2.06,5.69-8.83,4.16-12.74a75.43,75.43,0,0,1-4.53-20c-.35-3.54-2-4.91-5.11-5.82-5.36-1.58-10.62-3.51-15.91-5.31-1.34-.46-2.66-1-4.35-1.63-.2-5.76-.7-11.5-.47-17.21.16-4-1.35-6.4-4.53-8.64-8-5.67-7.9-5.81-9.2-15.33-.58-4.27-1.05-8.58-2-12.79a35.28,35.28,0,0,1,1-19.35,43.59,43.59,0,0,0,.95-4.62L24.83,206.53l.37-.85c5.14.7,10.29,1.35,15.43,2.08q39.62,5.67,79.25,11.38c15,2.16,30.05,4.32,45.06,6.62a9.72,9.72,0,0,1,4.6,2.15c5.42,4.73,10.68,9.65,16,14.51a7.09,7.09,0,0,1,1.64,1.74c3.85,7.52,7.83,15,11.35,22.67,1,2.21,2,3.88,4.28,4.64,1.06.35,2,1,3.11,1.25,3.38.9,5.61,2.84,6.37,6.37.5,2.32,2.12,3.06,4.43,3.55,10.94,2.31,21.82,4.88,32.72,7.38.92.21,1.82.54,3.19,1,.53,7.4,1.07,14.85,1.57,21.77,2.39,2.18,4.47,3.88,6.31,5.8a3.63,3.63,0,0,0,3.8,1.21q11.47-2.47,23-4.73a4.91,4.91,0,0,0,4.24-3.9c1.38-4.92,3-9.77,4.58-14.64.53-1.65,1.16-3.27,1.84-5.18l13.93,1.51c.85-3.38,1.68-6.7,2.58-10.27,8.51-2.3,17-4.62,25.45-6.85,4.94-1.3,9.95-2.36,14.88-3.72a16.48,16.48,0,0,0,5.08-2.41c4.53-3.28,9-6.67,13.33-10.21a39.85,39.85,0,0,0,5.28-5.5c2.95-3.58,5.84-7.21,8.58-11,1.8-2.47,3.8-4.2,7.07-4,5.14.24,7.6-2.37,8.62-7.37.92-4.49,2.74-8.79,4.21-13.34,8.71-.67,17.13-1.52,25.57-1.88,5.14-.22,9.5-1.63,12.44-5.92,5.62-8.22,13.35-12.84,23-14.77,5.94-1.18,11.7-3.22,17.6-4.61a10.24,10.24,0,0,0,7.24-5.66c2.84-5.55,5.85-11,8.58-16.62a8.48,8.48,0,0,1,5.22-4.5c6.79-2.37,13.44-5.15,20.29-7.32a110.48,110.48,0,0,1,14-3.09c3.53-.62,6.39-1.94,7.95-5.35A25.93,25.93,0,0,1,565.19,134a9.91,9.91,0,0,0,6.24-6.14c1.66-4,3.55-7.86,5.53-11.7a8.31,8.31,0,0,1,3-3.54c8.77-4.61,17.64-9,26.5-13.47A27.89,27.89,0,0,1,609.88,98c.39-2.3.83-4.65,1.15-7s1.23-4,3.76-4.91c9.91-3.6,19.56-8,29.66-11,4.95-1.43,8.31-4.22,11.91-7.25a38.24,38.24,0,0,1,5.37-4Q716.32,32.77,771,1.73c1-.54,1.94-1,3.21-1.73.56,2.12-.81,3.18-1.59,4.37-21.06,31.89-42.27,63.69-63.15,95.71C703.61,109,697.36,117.39,689,124c-7.88,6.16-13.34,13.91-17.29,23.07-3.58,8.31-3.91,8.4-12.93,9.12-7.59.61-13.78,2.45-18.58,9.38-6.69,9.65-15.85,17-26.18,22.79-3.73,2.08-6.87,5.22-11.48,5.71-.9.1-1.8,1.92-2.38,3.1-1.17,2.39-1.83,5.08-3.24,7.31-4.54,7.16-9.41,14.1-14,21.26a7.24,7.24,0,0,1-6.18,3.62c-7.63.68-15.23,1.81-22.87,2.55-2.41.23-3.88,1.14-4.51,3.44-.08.31-.25.6-.32.91-1.63,7-5.42,12-12.82,13.67-2,.44-2.76,1.92-3,3.86-.48,4-1.16,7.91-1.53,11.88a6.79,6.79,0,0,1-4,6q-14.22,7.45-28.23,15.3a8.71,8.71,0,0,0-3.26,3.8c-2.79,5.91-5.35,11.93-8.12,18.2H467.42c-2.49,12.41-4.91,24.55-7.4,36.95l-21.31-1.28c-.56,7.17-1.09,13.94-1.65,21.06-2.7.23-5.05.54-7.41.63-5.75.22-11.51.41-17.27.47-2.53,0-4.38.91-5.27,3.29-2,5.37-6.17,7.69-11.49,8.78-3.43.7-6.76,1.91-10.15,2.86a16.41,16.41,0,0,0-10.29,8c-.95,1.67-2,3.28-2.88,5a35.53,35.53,0,0,1-9.8,12.25,16,16,0,0,0-6.14,9.93,24.69,24.69,0,0,1-1.3,4.61,5.87,5.87,0,0,0,.82,6.26c4.18,5.45,5.28,11.6,5.29,18.41,0,8.45,1,16.9,1.69,25.35a18.42,18.42,0,0,0,1,4.17c2.23,7,4.6,14,6.74,21a6.64,6.64,0,0,0,5.05,5c4.76,1.33,9.36,3.25,14.11,4.62,2.7.78,3.82,2.33,4.38,5,1.84,8.76,4.76,17.39,5.56,26.22.59,6.65,3.64,11.38,7.3,16.16A20.22,20.22,0,0,1,411.32,564c1.15,10.16,2.71,20.27,4.07,30.41a12.35,12.35,0,0,1-.09,2.1,28.41,28.41,0,0,1-3.35.21c-12.46-.66-24.91-1.41-37.36-2a8.73,8.73,0,0,1-6.93-3.66c-2.47-3.31-5.62-4.18-9.64-3.74-6.17.69-12.39.92-19,1.36l-10.26-29.47L309.61,562c-.69-1.34-1.46-2.68-2.08-4.09-3.52-8.05-7.13-16.07-10.47-24.2-1.41-3.42-3.42-5.38-7.2-6.11-6.26-1.22-12.43-3-18.63-4.51C270.32,522.82,269.45,522.44,268.33,522.05ZM619.09,111.17a36.52,36.52,0,0,1-4.48-.51,11.74,11.74,0,0,0-9.17,1.37c-4.87,2.74-9.88,5.26-15,7.57a10.72,10.72,0,0,0-5.77,6c-1.63,3.82-3.59,7.5-5.24,11.31a8.06,8.06,0,0,1-4.86,4.92c-8.52,2.92-15,8.13-18.84,16.49a7.9,7.9,0,0,1-3.78,3.37,28.58,28.58,0,0,1-8.11,2.79c-10.42,1.39-20,5.38-29.79,8.89a7.39,7.39,0,0,0-4.5,3.94c-2.34,4.72-4.74,9.43-7.33,14-3,5.31-6.91,9.31-13.48,10.31-5,.76-9.85,2.77-14.85,3.74a34.8,34.8,0,0,0-22.34,14.24c-3.67,5-9.27,7.1-15.43,7.54-5.91.41-11.81.85-17.72,1.15-2.23.11-3.51.95-4.08,3.19-.72,2.78-1.72,5.49-2.58,8.23-2.64,8.41-2.62,8.57-11.48,9.44a9,9,0,0,0-7.11,4.07c-5.74,8.16-12.27,15.53-20.92,20.81a30.09,30.09,0,0,0-5.22,4.21c-2.74,2.69-6.06,3.86-9.72,4.73-10.1,2.41-20.13,5.14-30.21,7.63-2.3.57-3.56,1.59-3.89,4.09-.46,3.43-1.34,6.8-2.09,10.47l-15.43-1.67c-1.81,5.59-3.64,10.84-5.17,16.17-.78,2.74-2,4.49-5,4.84a59.33,59.33,0,0,0-7.94,1.76c-9.05,2.33-18.83,2.24-26.8,8.15-.21.15-.6.05-1.23.08-2.05-2.39-4.12-5.05-6.45-7.44-1.4-1.44-3.06-3-4.9-3.59-3.84-1.21-5.1-3.44-5.09-7.38,0-5.38-.67-10.77-1.07-16.35-6.93-1.56-13.45-3.1-20-4.46a86.73,86.73,0,0,0-11.31-1.81c-4.71-.36-5-.06-6.46-4.63-1.34-4.17-3.59-7-7.91-8-.77-.18-1.46-.66-2.22-.88-2.9-.84-4.42-2.61-5-5.69-1.6-8.33-6.67-15.14-10.43-22.52a9.68,9.68,0,0,0-2.23-2.48c-3.88-3.58-7.69-7.25-11.74-10.62a12.77,12.77,0,0,0-5.48-2.54c-4.54-.9-9.16-1.38-13.75-2q-35.59-5.1-71.2-10.18a20.31,20.31,0,0,0-2.92,0A15.8,15.8,0,0,0,75.73,228l62.5,42.92c6.63,4.56,7.8,7.63,5.91,15.29-.58,2.33-1.28,4.64-1.65,7a22,22,0,0,0-.3,6.16c.81,6.34,1.91,12.64,2.81,19a7,7,0,0,0,3.06,5.15c2.64,1.8,5.09,3.89,7.75,5.66a5.57,5.57,0,0,1,2.66,5.2c-.05,4.63.19,9.27.18,13.91a3.87,3.87,0,0,0,3.1,4.17c4.88,1.53,9.64,3.55,14.59,4.73,4.65,1.1,6.52,3.79,7.14,8.25,1.26,9,2.58,18,6.12,26.55a8.4,8.4,0,0,1,.16,5.11c-1,3.53-2.42,6.93-3.65,10.39a11.24,11.24,0,0,1-5.47,6.36,55,55,0,0,0-14.12,11.4,70.34,70.34,0,0,1-6.12,6.09,11.61,11.61,0,0,0-3.86,7.44q-.94,5.69-2.08,11.32c-.73,3.55-2.7,6-6.34,7-4,1.12-7.94,2.46-12,3.45-2.68.65-4.64,1.84-5.73,4.48a58,58,0,0,1-18.32,23.56c-.25.2-.45.46-.7.65a5.1,5.1,0,0,0-2.09,5c.43,4.14.63,8.29,1.06,12.43.22,2.15-.51,3.45-2.34,4.73q-31.25,21.89-62.35,44c-1,.69-1.78,1.57-3.53,3.14,3.67-.34,6.18-.5,8.67-.81,24.58-3.12,49.15-6.3,73.73-9.36a8.12,8.12,0,0,0,5.75-3,66.39,66.39,0,0,1,4.53-5c5.53-5.54,11.1-11,16.65-16.56a8.51,8.51,0,0,1,6-2.53c4.79-.22,9.55-.87,14.34-1.17,3.11-.2,5.39-1.33,7-4.16,1.32-2.37,3.2-4.42,4.55-6.77s3.28-3.45,5.94-2.82c6.72,1.6,12.59,0,17.77-4.48.24-.21.56-.33.8-.54,1.88-1.64,3.95-1.69,6.27-1.05,3.85,1.06,7.76,1.88,11.62,2.91a5.7,5.7,0,0,0,5.36-1.08c4.06-3.12,8.13-6.23,12.38-9.07,4-2.65,7.35-5.6,8.6-10.42.06-.24.47-.39.19-.18,6.74.95,13,1.84,19.27,2.71,2.38.32,3.73,1.54,4,4,.24,2.7.62,5.4,1,8.09.69,5.35,1.39,10.69,2.1,16.07,6.39,1.54,12.28,3,18.18,4.37,2.4.56,4.57,1.41,5.87,3.69,1.81,3.18,3.84,6.24,5.39,9.54,2.82,6,5.36,12.24,8.15,18.65l20.24-2.79c3.58,10.34,7,20.23,10.48,30.24,5-.33,9.51-.31,13.9-1,5.25-.8,9.29.66,12.55,4.79a6.73,6.73,0,0,0,5.26,2.9c6.71.24,13.41.69,20.12,1a33,33,0,0,0,4-.34c-.4-3.39-.92-6.37-1.08-9.38-.45-7.87-2.49-15-8-21a19,19,0,0,1-2.75-3.91,9.28,9.28,0,0,1-1.41-4c-.13-9.24-3.33-17.88-4.93-26.82a4.88,4.88,0,0,0-3.79-4.32c-4.43-1.36-8.73-3.21-13.2-4.36-3.41-.87-5-2.87-6-6q-3.32-10.76-6.91-21.44c-1.6-4.71-3-9.39-3.17-14.44-.12-4.63-.85-9.24-.93-13.87-.18-9.66-.76-19.15-7.4-27a4.17,4.17,0,0,1-.53-4.47c1.62-4.5,3.06-9.09,4.28-13.72a14.19,14.19,0,0,1,4.87-8,45.13,45.13,0,0,0,13-16.36c2.11-4.48,5.47-7.67,9.35-10.66,3.61-2.78,7.75-3.91,11.9-4.74,6.86-1.37,12.25-4.18,14.8-11.1.74-2,2.33-2.76,4.52-2.8,5-.1,9.91-.43,14.86-.67l6.42-.3c.61-7.71,1.18-15,1.77-22.39L451,334.06c1.53-7.75,2.94-14.94,4.37-22.13.65-3.29,1.18-6.62,2-9.86.93-3.6,2-4.25,5.76-4.25,4.64,0,9.28-.14,13.91.09,2.9.15,4.33-1,5.34-3.6,1.7-4.31,3.73-8.49,5.53-12.76a6.79,6.79,0,0,1,3.55-3.6c8.69-4.4,17.27-9,26-13.38a6.73,6.73,0,0,0,4-6c.31-3.18,1-6.34,1.12-9.52.15-4.13,1.56-7,5.88-8,6.21-1.4,10.09-5.26,11.21-11.52,1.07-6,5.16-7.88,10.46-8.46.63-.07,1.27-.11,1.91-.18,6.2-.67,12.39-1.4,18.59-2a7,7,0,0,0,5.82-3.57q4.13-6.75,8.72-13.21c2.64-3.72,4.67-7.57,4.9-12.26a32.57,32.57,0,0,1,1.26-5.48c9.48.39,16.26-5.27,23.47-9.93,1.21-.78,2.45-1.53,3.6-2.4a26.67,26.67,0,0,0,4-3.38c5.36-6.14,10.68-12.31,15.85-18.61a7.21,7.21,0,0,1,5.14-3c4.61-.51,9.17-1.38,13.78-1.83a5.23,5.23,0,0,0,4.72-3.36c2.16-4.64,4.46-9.21,6.76-13.78a10.71,10.71,0,0,1,2.08-3.16c6.52-5.87,13.14-11.64,19.68-17.49a17,17,0,0,0,2.79-3.26Q715.85,70,738.45,35.73a24.46,24.46,0,0,0,1.36-3.26c-2.46,1.31-4,2.09-5.5,2.94-18.35,10.44-36.62,21-55.07,31.26-8.72,4.84-17.08,10-24,17.27-1.77,1.83-3.62,2.88-6.37,2.19a7.73,7.73,0,0,0-4.16.59c-6.6,2.42-13.14,5-19.75,7.43a5.19,5.19,0,0,0-3.87,4.8C620.61,102.89,619.81,106.79,619.09,111.17Z"/><path d="M659.82,105.11c-.89,3.2-1.48,6.53-2.74,9.57-1.82,4.43-4.19,8.63-6.21,13a4.48,4.48,0,0,1-4.1,2.72c-4.13.46-8.21,1.31-12.34,1.67A7.22,7.22,0,0,0,629,135.3c-4.77,6.2-9.77,12.22-14.62,18.36-4.7,5.94-11.24,9.53-17.64,13-3.63,2-8.3,2-12.51,2.94-2.18.47-4.37.87-7.14,1.42-.68,3.63-1.85,7.33-2,11.06-.25,8-5.09,13.6-9.17,19.63-.65,1-2.4,1.48-3.7,1.62a174,174,0,0,0-27.8,4.95c-3.14.87-5,2.33-5.93,5.38-.9,2.89-2.29,5.63-3.24,8.51a6.79,6.79,0,0,1-4.4,4.63c-2.7,1-5.22,2.48-8,3.31-3.46,1-4.71,3.3-5,6.67-.34,4-1,7.93-1.46,11.9a7.11,7.11,0,0,1-4,5.92,127.2,127.2,0,0,1-21.61,10.27,8.53,8.53,0,0,0-5.58,5.42c-1.49,3.85-3.28,7.58-5,11.44-5.5,0-10.62.23-15.7-.07-3.57-.21-5.22,1.4-7.1,4.22-5.45,8.13-6.95,17.39-8.69,26.64-.17.94-.36,1.88-.59,2.81a9.76,9.76,0,0,1-.86,1.47l-24.13-1.34c-.6,8.19-1.16,15.78-1.76,23.92l-9.5.46c-8.87.44-9.07.33-13.27,8-2.15,3.94-4.78,6.57-9.35,7.16-9.25,1.22-15.69,7.49-22.56,12.89a12.44,12.44,0,0,0-3,4.3A61.61,61.61,0,0,1,337,393.46a12.68,12.68,0,0,0-4.19,6.77c-2.33,8-4,16.17-8.29,23.43a4.26,4.26,0,0,0,.17,4.89c2.51,4.08,5.06,8.16,7.26,12.42a18.19,18.19,0,0,1,1.91,6.74c.83,9.71,1.39,19.44,2.13,29.16a19.73,19.73,0,0,0,1,4.66c4.05,12.12,8.23,24.2,12.18,36.35a7.71,7.71,0,0,0,5.76,5.62c4.15,1.16,8.19,2.7,12.28,4.08,1.55.53,2.95,1.14,3.23,3.09,1.71,12.05,7.41,22.72,11.74,33.86.23.59.42,1.19.79,2.28a31.24,31.24,0,0,1-3.33-.53c-6-1.65-12-3.41-18-5a6.2,6.2,0,0,1-4.87-4.58c-2.47-7.92-5.21-15.77-7.86-23.65-.45-1.33-1-2.64-1.65-4.34l-21.21,3.08c-1.75-3.95-3.53-7.67-5.06-11.49-2.38-5.95-7.07-10.21-10.88-15.11-.68-.87-2.19-1.21-3.39-1.53-4.31-1.15-8.65-2.19-13.49-3.4-.66-5-1.54-10-1.91-15a12.39,12.39,0,0,0-4.06-8.8c-8.05-7.53-4.73-6.62-16.12-7.37a40,40,0,0,1-13.48-3c-4.53-2-9.19-3.6-14.35-5.6-1.4,3.45-3.17,6.55-3.89,9.87-1.63,7.52-7.23,11.36-13,15.08a5.28,5.28,0,0,1-3.55.37c-3.91-.81-7.8-1.76-11.65-2.81a6.65,6.65,0,0,0-6.31,1.1,8.52,8.52,0,0,1-.8.53C194,491,194,491.16,182.24,489.85c-3.8-.42-6,.61-7.82,3.79-1.49,2.64-3.51,5-5.09,7.55a6.53,6.53,0,0,1-5.83,3.46c-4.15.16-8.28.78-12.43,1a9.57,9.57,0,0,0-6,2.43c-7.72,6.5-15.22,13.22-21.67,21-1.92,2.32-4,3.83-7.23,4-4,.24-7.88.94-12.23.69,3.88-2.71,7.7-5.49,11.64-8.1,2.92-1.95,5.94-3.77,9-5.48,2.06-1.15,3-2.59,2.69-5-.49-4.44-.63-8.93-1.14-13.37-.32-2.79.3-4.92,2.61-6.67a40.21,40.21,0,0,0,12.71-16.52,6.5,6.5,0,0,1,5.28-4.3c1.1-.17,2.13-.71,3.23-.88,7-1.1,12.26-4.66,16.42-10.44,1.95-2.71,3.54-5.38,3.73-8.59.5-8.62,3.82-15.66,10.87-20.79,4.13-3,8.21-6.07,12.48-8.84a12.09,12.09,0,0,0,5.19-6c2.72-7.33,5.56-14.61,8.15-22,.48-1.36.05-3.05,0-4.59a2.6,2.6,0,0,0-.26-.92c-4-9.51-5.65-19.57-7.47-29.65-.89-4.94-3.19-9.66-5.17-14.35-.45-1.07-2.11-1.84-3.38-2.31-3.44-1.29-7-2.32-10.45-3.49-1.65-.55-3.28-1.19-5.41-2,0-3.9,0-7.72,0-11.54,0-3.39-.82-6.15-4.07-8-2.35-1.33-4.3-3.35-6.62-4.74-2.76-1.65-3.49-4.13-4.23-7-2.26-8.92-.55-17.45,2.06-25.9,1-3.18.32-5.69-1.07-8.61-3.83-8-9.15-14.48-17.1-18.7a24.37,24.37,0,0,1-6.9-5.7c3.65.5,7.28,1.28,11,1.42,9.26.36,14.59,6.34,19.19,13.2,4.51,6.71,7.06,14.3,8.68,22.18.61,3,2,5,5,5.69,6.95,1.54,10.59,6,12.61,12.7,1.78,5.92,1.56,4.65,7.16,4.9,4.31.19,8.66,0,12.91.57,4.4.58,8.7,1.88,13.48,3,.29,5,.82,9.72.79,14.48,0,3.79,1.34,6,5,7,6.43,1.72,11.21,5.72,15.09,11.07,2.52,3.48,5.52,6.61,8.67,10.31,2.31-1.31,4.57-2.41,6.63-3.81a55.19,55.19,0,0,1,22.53-8.81c7.39-1.21,14.62-3.43,22-4.77,3.58-.65,5.15-2.42,6-5.73.92-3.7,2.29-7.28,3.59-11.29l17.25,1.79c1-4.9,2.24-9.5,2.75-14.18.38-3.52,2-4.9,5.25-5.61,7.8-1.7,15.51-3.8,23.29-5.58a17,17,0,0,0,7.66-3.67A108.87,108.87,0,0,1,383.3,286c7.47-5.08,14.22-10.85,19.2-18.48a6.65,6.65,0,0,1,5.17-3c3.49-.43,7-1.05,10.47-1.29a4.38,4.38,0,0,0,4.36-3.62c1-3.53,2.13-7,3.24-10.54.53-1.65,1.14-3.27,1.75-5,4.22-.35,8.19-.84,12.18-1a25.78,25.78,0,0,0,8.75-2.1,39.35,39.35,0,0,0,18-13.69,13,13,0,0,1,7.82-5.11c8.07-2,16.08-4.15,24.15-6.09a15.74,15.74,0,0,0,7-3.78,52.63,52.63,0,0,0,14.48-20,10.7,10.7,0,0,1,7.92-6.85c6.17-1.57,12.25-3.62,18.48-4.87s11.8-3.93,17.46-6.5A7.22,7.22,0,0,0,567,170.8c3.83-8.35,10.27-13.59,18.82-16.48a9.43,9.43,0,0,0,6.17-6.19c.51-1.5,1.52-2.84,2-4.35,2.34-7.73,7.34-12.67,14.92-15.48a14.75,14.75,0,0,1,7.84-1.08c5,.8,10.09,1.42,15.76,2.2.79-4.46,1.54-8.63,2.27-12.8a34.59,34.59,0,0,0,.79-5.2c0-3.19,1.4-5.13,4.57-5.73a1.52,1.52,0,0,0,.45-.16c5.05-2.72,10.2-3.27,15.6-1a14.54,14.54,0,0,0,3.73.55Z"/><path d="M659.89,105.13c2.27-.19,2-2.29,2.44-3.6a15.57,15.57,0,0,1,4.21-6.2c6.54-6.67,14.34-11.38,22.89-15.2-4.3,6.23-7.28,13.33-13.13,18.42a20.31,20.31,0,0,0-2.79,2.6c-3.62,4.62-8,6.56-13.66,4Z"/></g></svg>